<?xml version="1.0" encoding="utf-8"?>
<!-- Generator: Adobe Illustrator 26.3.1, SVG Export Plug-In . SVG Version: 6.00 Build 0)  -->
<svg version="1.1" id="Layer_1" xmlns="http://www.w3.org/2000/svg" xmlns:xlink="http://www.w3.org/1999/xlink" x="0px" y="0px"
	 viewBox="0 0 470 147" style="enable-background:new 0 0 470 147;" xml:space="preserve">
<style type="text/css">
	.st0{fill:#3C3C3C;}
	.st1{fill:#FFB083;}
	.st2{fill:#FFD3AC;}
	.st3{fill:#F8F8F8;}
</style>
<g>
	<path class="st0" d="M73.3000031,60.5499992c-18.7000008,0-33.7999992,19.6000023-33.7999992,43.7999992
		c0,4.3000031,0.5,8.4000015,1.2999992,12.3000031c4.0999985-18.1999969,17.0999985-31.5999985,32.5-31.5999985
		s28.4000015,13.3000031,32.5,31.5999985c0.9000015-3.9000015,1.3000031-8,1.3000031-12.3000031
		C107.1999969,80.2500076,92,60.5499992,73.3000031,60.5499992L73.3000031,60.5499992z M73.3000031,60.5499992
		c-18.7000008,0-33.7999992,19.6000023-33.7999992,43.7999992c0,4.3000031,0.5,8.4000015,1.2999992,12.3000031
		c4.0999985-18.1999969,17.0999985-31.5999985,32.5-31.5999985s28.4000015,13.3000031,32.5,31.5999985
		c0.9000015-3.9000015,1.3000031-8,1.3000031-12.3000031C107.1999969,80.2500076,92,60.5499992,73.3000031,60.5499992
		L73.3000031,60.5499992z M73.3000031,60.5499992c-18.7000008,0-33.7999992,19.6000023-33.7999992,43.7999992
		c0,4.3000031,0.5,8.4000015,1.2999992,12.3000031c4.0999985-18.1999969,17.0999985-31.5999985,32.5-31.5999985
		s28.4000015,13.3000031,32.5,31.5999985c0.9000015-3.9000015,1.3000031-8,1.3000031-12.3000031
		C107.1999969,80.2500076,92,60.5499992,73.3000031,60.5499992L73.3000031,60.5499992z M73.3000031,60.5499992
		c-18.7000008,0-33.7999992,19.6000023-33.7999992,43.7999992c0,4.3000031,0.5,8.4000015,1.2999992,12.3000031
		c4.0999985-18.1999969,17.0999985-31.5999985,32.5-31.5999985s28.4000015,13.3000031,32.5,31.5999985
		c0.9000015-3.9000015,1.3000031-8,1.3000031-12.3000031C107.1999969,80.2500076,92,60.5499992,73.3000031,60.5499992
		L73.3000031,60.5499992z M73.3000031,0.1499987C32.9000015,0.1499987,0,33.0500069,0,73.4500046
		c0,40.5,32.9000015,73.4000015,73.3000031,73.4000015s73.3000031-32.9000015,73.3000031-73.3000031
		C146.6000061,33.0500069,113.8000031,0.1499987,73.3000031,0.1499987z M115.1999969,119.1500015
		c-11,10.0999985-25.8000031,16.4000015-41.9000015,16.4000015s-30.9000015-6.1999969-41.9000015-16.4000015
		c-0.2000008-2.5-0.3999996-5.0999985-0.3999996-7.6999969c0-32,18.8999996-57.9000053,42.3000031-57.9000053
		s42.2999954,25.9000053,42.2999954,57.9000053C115.5999985,114.0500031,115.5,116.6500015,115.1999969,119.1500015z
		 M119.6999969,114.6500015c0.0999985-1.5999985,0.1999969-3.2999954,0.1999969-5c0-31-33.9000015-84.1999969-46.5-84.1999969
		c-12.7000008,0-46.5,53.2000008-46.5,84.1999969c0,1.6999969,0.1000004,3.2999954,0.2000008,5
		c-9.7999992-11-15.6999998-25.4000015-15.6999998-41.1999969c0-34.2000008,27.7999992-62.0000038,62-62.0000038
		s62,27.8000031,62,62.0000038C135.3999939,89.2500076,129.3999939,103.75,119.6999969,114.6500015z M73.3000031,60.5499992
		c-18.7000008,0-33.7999992,19.6000023-33.7999992,43.7999992c0,4.3000031,0.5,8.4000015,1.2999992,12.3000031
		c4.0999985-18.1999969,17.0999985-31.5999985,32.5-31.5999985s28.4000015,13.3000031,32.5,31.5999985
		c0.9000015-3.9000015,1.3000031-8,1.3000031-12.3000031C107.1999969,80.2500076,92,60.5499992,73.3000031,60.5499992
		L73.3000031,60.5499992z M73.3000031,60.5499992c-18.7000008,0-33.7999992,19.6000023-33.7999992,43.7999992
		c0,4.3000031,0.5,8.4000015,1.2999992,12.3000031c4.0999985-18.1999969,17.0999985-31.5999985,32.5-31.5999985
		s28.4000015,13.3000031,32.5,31.5999985c0.9000015-3.9000015,1.3000031-8,1.3000031-12.3000031
		C107.1999969,80.2500076,92,60.5499992,73.3000031,60.5499992L73.3000031,60.5499992z M73.3000031,60.5499992
		c-18.7000008,0-33.7999992,19.6000023-33.7999992,43.7999992c0,4.3000031,0.5,8.4000015,1.2999992,12.3000031
		c4.0999985-18.1999969,17.0999985-31.5999985,32.5-31.5999985s28.4000015,13.3000031,32.5,31.5999985
		c0.9000015-3.9000015,1.3000031-8,1.3000031-12.3000031C107.1999969,80.2500076,92,60.5499992,73.3000031,60.5499992
		L73.3000031,60.5499992z"/>
	<g>
		<path class="st0" d="M161,35.1499977c8,0,15.1999969,5.0999985,17.8999939,12.6999969l14,40.3000069h0.1999969l14.5-40.5000038
			c2.6999969-7.5,9.8000031-12.5,17.8000031-12.5l-26.6000061,69.4000092h-11.6000061l-26.6000061-69.4000092H161L161,35.1499977z"
			/>
		<path class="st0" d="M267.1000061,104.5500031h-6c-3,0-5.5-2.5-5.5-5.5v-0.0999985h-0.1999969
			c-3.3999939,4.1999969-9.3999939,6.5999985-15.3999939,6.5999985c-10.1999969,0-18.3999939-5.4000015-18.3999939-15.5
			c0-9.1999969,6.6000061-14.9000015,18.1000061-15.5l15.5-0.8000031v-2.3000031c0-6.4000015-5.1000061-9.4000053-10.5-9.4000053
			s-9.6000061,2.8000069-10.3000031,8.5000038h-11.8000031c1.1999969-10.9000053,9.5-17.9000053,22.1000061-17.9000053
			c13.1999969,0,22.0999908,8.4000015,22.0999908,20.4000053v15
			C266.7000122,98.1500015,266.6000061,101.1500015,267.1000061,104.5500031z M241.6000061,83.4500046
			c-5.5,0.3000031-8.1999969,2.5-8.1999969,6.1999969c0,4,3.1999969,6.3000031,7.1999969,6.3000031
			c9.5,0,14.5-5.9000015,14.5-11.1999969v-1.9000015L241.6000061,83.4500046z"/>
		<path class="st0" d="M292.7999878,79.0500031c0-14.9000015,11.3999939-26.4000053,26.1000061-26.4000053
			C333.6999817,52.6499977,345,64.1500015,345,79.0500031s-11.3999939,26.4000015-26.1000061,26.4000015
			C304.1000061,105.5500031,292.7999878,94.0500031,292.7999878,79.0500031z M333.1000061,79.0500031
			c0-9.1999969-6.1000061-15.6000023-14.2000122-15.6000023s-14.2000122,6.5000038-14.2000122,15.6000023
			c0,9.1999969,6.1000061,15.5999985,14.2000122,15.5999985C327,94.7500076,333.1000061,88.2500076,333.1000061,79.0500031z"/>
		<path class="st0" d="M448.2000122,104.5500031h-6c-3,0-5.5-2.5-5.5-5.5v-0.0999985H436.5
			c-3.3999939,4.1999969-9.3999939,6.5999985-15.3999939,6.5999985c-10.2000122,0-18.3999939-5.4000015-18.3999939-15.5
			c0-9.1999969,6.6000061-14.9000015,18.1000061-15.5l15.5-0.8000031v-2.3000031c0-6.4000015-5.1000061-9.4000053-10.5-9.4000053
			s-9.6000061,2.8000069-10.2999878,8.5000038h-11.7999878c1.2000122-10.9000053,9.5-17.9000053,22.1000061-17.9000053
			c13.2000122,0,22.1000061,8.4000015,22.1000061,20.4000053v15
			C447.7999878,98.1500015,447.7000122,101.1500015,448.2000122,104.5500031z M422.7000122,83.4500046
			c-5.5,0.3000031-8.2000122,2.5-8.2000122,6.1999969c0,4,3.2000122,6.3000031,7.2000122,6.3000031
			c9.5,0,14.5-5.9000015,14.5-11.1999969v-1.9000015L422.7000122,83.4500046z"/>
		<path class="st0" d="M454.6000061,40.4500008c0-4.1999969,3.3999939-7.6999969,7.7000122-7.6999969
			c4.2999878,0,7.7000122,3.5,7.7000122,7.6999969c0,4.3000031-3.3999939,7.6999969-7.7000122,7.6999969
			C457.8999939,48.1499977,454.6000061,44.7500038,454.6000061,40.4500008z M468.1000061,53.4500008v51.1000023H456.5V53.4500008
			H468.1000061z"/>
		<path class="st0" d="M274.1000061,33.1499977v71.4000092h11.6000061V48.8499947
			C285.5,43.8500023,282.7000122,35.2500038,274.1000061,33.1499977z"/>
		<path class="st0" d="M395.3999939,73.2500076v31.2999954h-11.6000061V74.5500107
			c0-7.6999969-3.3999939-11.6000023-8.7999878-11.6000023c-6.7999878,0-11.7000122,5.2000008-11.7000122,12.6000023v28.9000015
			h-11.6000061V33.0500069c8.5,2.1000061,11.2999878,10.5999985,11.6000061,15.5999985v1.1999969l0,0v9.6999969H363.5
			c2.3999939-3.8000031,7.5-7.1999969,14.2999878-7.1999969C387.1000061,52.4500008,395.3999939,58.5499992,395.3999939,73.2500076z
			"/>
	</g>
</g>
</svg>
